<svg role="img" viewBox="0 0 24 24" xmlns="http://www.w3.org/2000/svg"><title>Instagram</title><path d="M12 2.163c3.204 0 3.584.012 4.85.07 1.17.054 1.97.24 2.427.402a4.92 4.92 0 0 1 1.78 1.153 4.92 4.92 0 0 1 1.153 1.78c.162.457.348 1.258.402 2.427.058 1.266.07 1.646.07 4.85s-.012 3.584-.07 4.85c-.054 1.17-.24 1.97-.402 2.427a4.92 4.92 0 0 1-1.153 1.78 4.92 4.92 0 0 1-1.78 1.153c-.457.162-1.258.348-2.427.402-1.266.058-1.646.07-4.85.07s-3.584-.012-4.85-.07c-1.17-.054-1.97-.24-2.427-.402a4.92 4.92 0 0 1-1.78-1.153 4.92 4.92 0 0 1-1.153-1.78c-.162-.457-.348-1.258-.402-2.427C2.175 15.746 2.163 15.366 2.163 12s.012-3.584.07-4.85c.054-1.17.24-1.97.402-2.427a4.92 4.92 0 0 1 1.153-1.78A4.92 4.92 0 0 1 5.568 2.635c.457-.162 1.258-.348 2.427-.402C8.416 2.175 8.796 2.163 12 2.163zm0-2.163C8.691 0 8.26.013 7.02.072 5.778.13 4.885.308 4.112.597a7.07 7.07 0 0 0-2.543 1.64A7.07 7.07 0 0 0 .597 4.112C.308 4.885.13 5.778.072 7.02.013 8.26 0 8.691 0 12c0 3.309.013 3.74.072 4.98.058 1.242.236 2.135.525 2.908a7.07 7.07 0 0 0 1.64 2.543 7.07 7.07 0 0 0 2.543 1.64c.773.289 1.666.467 2.908.525 1.24.059 1.671.072 4.98.072s3.74-.013 4.98-.072c1.242-.058 2.135-.236 2.908-.525a7.07 7.07 0 0 0 2.543-1.64 7.07 7.07 0 0 0 1.64-2.543c.289-.773.467-1.666.525-2.908.059-1.24.072-1.671.072-4.98s-.013-3.74-.072-4.98c-.058-1.242-.236-2.135-.525-2.908a7.07 7.07 0 0 0-1.64-2.543A7.07 7.07 0 0 0 19.888.597c-.773-.289-1.666-.467-2.908-.525C15.74.013 15.309 0 12 0z"/></svg>