<svg role="img" viewBox="0 0 24 24" xmlns="http://www.w3.org/2000/svg"><title>Pinterest</title><path d="M12 0C5.373 0 0 5.373 0 12c0 4.99 3.657 9.13 8.438 10.062-.117-.855-.223-2.169.046-3.102.243-.822 1.566-5.236 1.566-5.236s-.397-.794-.397-1.969c0-1.843 1.07-3.221 2.402-3.221 1.134 0 1.683.851 1.683 1.872 0 1.141-.726 2.847-1.099 4.428-.313 1.33.667 2.414 1.978 2.414 2.374 0 3.999-3.057 3.999-6.679 0-2.733-1.841-4.783-5.022-4.783-3.619 0-5.882 2.709-5.882 6.177 0 1.125.433 2.332.975 2.989.106.128.121.24.089.367-.096.4-.313 1.33-.355 1.516-.056.245-.181.297-.418.179-1.56-.727-2.535-2.993-2.535-4.81 0-3.914 2.844-7.51 8.392-7.51 4.408 0 7.83 3.15 7.83 7.353 0 4.389-2.763 7.92-6.6 7.92-1.288 0-2.501-.67-2.914-1.451 0 0-.619 2.352-.77 2.95-.277 1.089-.817 2.173-1.314 3.022C18.357 22.938 24 18.99 24 12 24 5.373 18.627 0 12 0z"/></svg>